<svg width="32" height="32" viewBox="0 0 32 32" fill="none" xmlns="http://www.w3.org/2000/svg">
<path d="M20.6667 10.0002L23.7334 13.0668C23.9827 13.3111 24.3177 13.448 24.6667 13.448C25.0158 13.448 25.3508 13.3111 25.6001 13.0668L28.4001 10.2668C28.6444 10.0176 28.7812 9.6825 28.7812 9.3335C28.7812 8.98449 28.6444 8.6494 28.4001 8.40016L25.3334 5.3335" stroke="white" stroke-width="2.66667" stroke-linecap="round" stroke-linejoin="round"/>
<path d="M28 2.6665L15.2 15.4665" stroke="white" stroke-width="2.66667" stroke-linecap="round" stroke-linejoin="round"/>
<path d="M10.0001 28.0002C14.0502 28.0002 17.3334 24.7169 17.3334 20.6668C17.3334 16.6167 14.0502 13.3335 10.0001 13.3335C5.94999 13.3335 2.66675 16.6167 2.66675 20.6668C2.66675 24.7169 5.94999 28.0002 10.0001 28.0002Z" stroke="white" stroke-width="2.66667" stroke-linecap="round" stroke-linejoin="round"/>
</svg>
