<svg width="28" height="28" viewBox="0 0 28 28" fill="none" xmlns="http://www.w3.org/2000/svg">
<path d="M22.1667 12.8335H5.83333C4.54467 12.8335 3.5 13.8782 3.5 15.1668V23.3335C3.5 24.6222 4.54467 25.6668 5.83333 25.6668H22.1667C23.4553 25.6668 24.5 24.6222 24.5 23.3335V15.1668C24.5 13.8782 23.4553 12.8335 22.1667 12.8335Z" stroke="white" stroke-width="2.33333" stroke-linecap="round" stroke-linejoin="round"/>
<path d="M8.16675 12.8335V8.16683C8.16675 6.61973 8.78133 5.136 9.87529 4.04204C10.9693 2.94808 12.453 2.3335 14.0001 2.3335C15.5472 2.3335 17.0309 2.94808 18.1249 4.04204C19.2188 5.136 19.8334 6.61973 19.8334 8.16683V12.8335" stroke="white" stroke-width="2.33333" stroke-linecap="round" stroke-linejoin="round"/>
</svg>
