<svg width="28" height="28" viewBox="0 0 28 28" fill="none" xmlns="http://www.w3.org/2000/svg">
<path d="M2.40569 14.4059C2.30846 14.144 2.30846 13.8559 2.40569 13.5939C3.35267 11.2978 4.96012 9.33448 7.02425 7.95298C9.08838 6.57148 11.5162 5.83398 14 5.83398C16.4838 5.83398 18.9117 6.57148 20.9758 7.95298C23.0399 9.33448 24.6474 11.2978 25.5944 13.5939C25.6916 13.8559 25.6916 14.144 25.5944 14.4059C24.6474 16.7021 23.0399 18.6654 20.9758 20.0469C18.9117 21.4284 16.4838 22.1659 14 22.1659C11.5162 22.1659 9.08838 21.4284 7.02425 20.0469C4.96012 18.6654 3.35267 16.7021 2.40569 14.4059Z" stroke="white" stroke-width="2.33333" stroke-linecap="round" stroke-linejoin="round"/>
<path d="M14 17.5C15.933 17.5 17.5 15.933 17.5 14C17.5 12.067 15.933 10.5 14 10.5C12.067 10.5 10.5 12.067 10.5 14C10.5 15.933 12.067 17.5 14 17.5Z" stroke="white" stroke-width="2.33333" stroke-linecap="round" stroke-linejoin="round"/>
</svg>
